# xmcd CD database file
#
# Track frame offsets:
#	150
#	24116
#	40388
#	52687
#	65998
#	76757
#	90739
#	109788
#	123339
#	137471
#	152520
#	164644
#
# Disc length: 2434 seconds
#
# Revision: 4
# Processed by: cddbd v1.4PL0 Copyright (c) Steve Scherf et al.
# Submitted via: CDex 1.50beta10
#
DISCID=8f09800c
DTITLE=Dolly Parton - The Love Album
DYEAR=1900
DGENRE=
TTITLE0=You are
TTITLE1=Heartbreaker
TTITLE2=The bargain store
TTITLE3=I will always love you
TTITLE4=Love is like a butterfly
TTITLE5=Coat of many collor
TTITLE6=Islands in the stream
TTITLE7=Here you come again
TTITLE8=Send me the pillow that you dream on
TTITLE9=It's all wrong but it's all right
TTITLE10=Jolene
TTITLE11=One of those days
EXTD=
EXTT0=
EXTT1=
EXTT2=
EXTT3=
EXTT4=
EXTT5=
EXTT6=
EXTT7=
EXTT8=
EXTT9=
EXTT10=
EXTT11=
PLAYORDER=
